<svg xmlns="http://www.w3.org/2000/svg" width="15" height="18" fill="none" viewBox="0 0 15 18"><path fill="currentColor" fill-rule="evenodd" d="M10.78 4.215c.575.016 2.213.221 3.269 1.724-.085.05-1.951 1.121-1.93 3.32.023 2.629 2.35 3.503 2.39 3.517-.014.062-.366 1.259-1.243 2.473-.733 1.07-1.5 2.115-2.72 2.134-1.184.026-1.582-.68-2.94-.68-1.371 0-1.795.662-2.931.707-1.161.042-2.049-1.142-2.808-2.202C.35 13.044-.832 9.11.752 6.433 1.52 5.12 2.92 4.274 4.415 4.252c1.162-.023 2.24.765 2.955.766.7 0 2.035-.944 3.41-.803M10.794 0c.116 1.03-.302 2.045-.913 2.791-.638.734-1.657 1.296-2.65 1.224-.13-.991.373-2.045.936-2.688C8.804.597 9.91.038 10.794 0" clip-rule="evenodd"></path></svg>