<svg xmlns="http://www.w3.org/2000/svg" width="120" height="120" fill="none" viewBox="0 0 120 120"><path fill="#CBF0FA" d="M60 120c33.137 0 60-26.863 60-60S93.137 0 60 0 0 26.863 0 60s26.863 60 60 60Z"></path><path fill="#0067F5" d="m83.889 23.87.135 46.551-40.525 23.404-.135-46.567L83.89 23.869Z"></path><path fill="#003781" d="m43.5 93.825-8.41-5.314-.136-46.567 8.41 5.314.136 46.567Z"></path><path fill="#fff" d="m43.364 47.258-8.41-5.314 41.524-23.389 7.41 5.314-40.524 23.389Zm28.38 1.21v3.202L51.48 63.364v-3.201l20.263-11.694ZM67.49 56.69l.015 3.187-15.993 9.244-.015-3.201 15.993-9.23Zm8.508-16.444v3.202l-24.531 14.16v-3.202l24.53-14.16Z"></path></svg>