<svg xmlns="http://www.w3.org/2000/svg" width="24" height="25" fill="none" viewBox="0 0 24 25"><path fill="#4280EF" d="M20.4 13.5c0-.56-.055-1.14-.146-1.682h-7.893v3.201h4.52a3.77 3.77 0 0 1-1.676 2.514l2.698 2.08c1.585-1.465 2.497-3.6 2.497-6.113"></path><path fill="#34A353" d="M12.362 21.601c2.26 0 4.156-.741 5.541-2.007l-2.697-2.062c-.748.507-1.714.796-2.844.796-2.187 0-4.028-1.465-4.703-3.418l-2.77 2.116a8.37 8.37 0 0 0 7.473 4.575"></path><path fill="#F6B704" d="M7.66 14.893a5 5 0 0 1 0-3.183L4.888 9.576a8.25 8.25 0 0 0 0 7.45z"></path><path fill="#E54335" d="M12.362 8.292a4.59 4.59 0 0 1 3.208 1.247l2.388-2.387A8.1 8.1 0 0 0 12.362 5 8.37 8.37 0 0 0 4.89 9.575l2.77 2.134c.675-1.97 2.516-3.417 4.703-3.417"></path></svg>