<svg xmlns="http://www.w3.org/2000/svg" xmlns:xlink="http://www.w3.org/1999/xlink" viewBox="0 0 500 500" preserveAspectRatio="xMidYMid meet"><defs><clipPath id="__lottie_element_542"><rect width="500" height="500" x="0" y="0"></rect></clipPath><g id="__lottie_element_546"><g style="display: block;" transform="matrix(1,0,0,1,119.80899047851562,159.62799072265625)" opacity="1"><g opacity="1" transform="matrix(1,0,0,1,122.38200378417969,98.18099975585938)"><path fill="rgb(0,47,105)" fill-opacity="1" d=" M-114.24299621582031,58.87900161743164 C-114.24299621582031,58.87900161743164 -126.13200378417969,20.246000289916992 -126.13200378417969,20.246000289916992 C-126.13200378417969,20.246000289916992 97.96145629882812,-54.7640495300293 97.96145629882812,-54.7640495300293 C97.96145629882812,-54.7640495300293 109.84952545166016,-16.13105010986328 109.84952545166016,-16.13105010986328 C109.84952545166016,-16.13105010986328 -114.24299621582031,58.87900161743164 -114.24299621582031,58.87900161743164z"></path></g></g></g><mask id="__lottie_element_546_1" mask-type="alpha"><use xlink:href="#__lottie_element_546"></use></mask></defs><g clip-path="url(#__lottie_element_542)"><g mask="url(#__lottie_element_546_1)" style="display: block;"><g transform="matrix(1,0,0,1,119.80899047851562,159.62799072265625)" opacity="1"><g opacity="1" transform="matrix(1,0,0,1,122.38200378417969,98.18099975585938)"><path fill="rgb(0,47,105)" fill-opacity="1" d=" M-112.24299621582031,53.87900161743164 C-112.24299621582031,53.87900161743164 -122.13200378417969,24.246000289916992 -122.13200378417969,24.246000289916992 C-122.13200378417969,24.246000289916992 112.24299621582031,-53.87900161743164 112.24299621582031,-53.87900161743164 C112.24299621582031,-53.87900161743164 122.13200378417969,-24.246000289916992 122.13200378417969,-24.246000289916992 C122.13200378417969,-24.246000289916992 -112.24299621582031,53.87900161743164 -112.24299621582031,53.87900161743164z"></path></g></g></g><g style="display: block;" transform="matrix(1,0,0,1,347.1784973144531,212.30047607421875)" opacity="1"><g opacity="1" transform="matrix(1,0,0,1,0,0)"><path stroke-linecap="butt" stroke-linejoin="miter" fill-opacity="0" stroke-miterlimit="4" stroke="rgb(0,47,105)" stroke-opacity="1" stroke-width="31" d=" M-102.63845825195312,-34.18452072143555 C-102.63845825195312,-34.18452072143555 -9.25,4.5 -9.25,4.5 C-9.25,4.5 -5.5,15 -5.5,15 C-5.5,15 -49.74749755859375,105.69478607177734 -49.74749755859375,105.69478607177734"></path></g></g></g></svg>