<svg xmlns="http://www.w3.org/2000/svg" width="44" height="44" fill="none" viewBox="0 0 44 44"><g clip-path="url(#clip0_33662_1857)"><path fill="#CBF0FA" d="M22 44c12.15 0 22-9.85 22-22S34.15 0 22 0 0 9.85 0 22s9.85 22 22 22Z"></path><path fill="#0067F5" d="M14.596 23.362a2 2 0 0 0-2.005.003l-.915.532c-1.33.772-1.326 2.693.005 3.461l9.36 5.402a2 2 0 0 0 2.004-.002l9.28-5.391c1.328-.773 1.326-2.693-.005-3.462l-.909-.524a2 2 0 0 0-2.005.003l-6.36 3.697a2 2 0 0 1-2.005.003l-6.445-3.722Z"></path><path fill="#fff" d="M21.04 28.404a2 2 0 0 0 2.006-.003l7.362-4.28 1.916-1.113c1.33-.773 1.326-2.693-.005-3.462l-9.36-5.402a2 2 0 0 0-2.005.003l-9.277 5.393c-1.33.773-1.326 2.694.005 3.462l1.91 1.101 7.449 4.301Z"></path><path fill="#FEBE10" stroke="#fff" d="M24.593 12.361c.483-1.306 2.331-1.306 2.814 0l.388 1.05a.5.5 0 0 0 .295.294l1.049.388c1.306.483 1.306 2.331 0 2.814l-1.05.388a.5.5 0 0 0-.294.295l-.388 1.049c-.483 1.306-2.331 1.306-2.814 0l-.388-1.05a.5.5 0 0 0-.295-.294l-1.049-.388c-1.306-.483-1.306-2.331 0-2.814l1.05-.388a.5.5 0 0 0 .294-.295l.388-1.049Z"></path></g><defs><clipPath id="clip0_33662_1857"><path fill="#fff" d="M0 0h44v44H0z"></path></clipPath></defs></svg>